<svg width="508" height="176" viewBox="0 0 508 176" fill="none" xmlns="http://www.w3.org/2000/svg">
<path d="M206.391 49.9413V11.2776H216.92V50.531C216.92 57.6909 221.721 62.3238 229.387 62.3238C236.884 62.3238 241.853 57.6067 241.853 50.531L241.769 11.2776H252.298V49.9413C252.298 56.4274 250.108 61.7342 245.812 65.9459C241.516 70.1577 236.041 72.2635 229.387 72.2635C222.732 72.2635 217.173 70.1577 212.877 65.9459C208.581 61.6499 206.391 56.3432 206.391 49.9413ZM270.204 71H259.591V11.0249H270.204V41.6863H276.522L287.22 24.2497H298.676L287.725 41.6863H300.023V71H289.494V51.626H270.204V71ZM316.089 71H305.476V24.4182H333.526V34.2737H316.089V71ZM354.282 72.2635C347.712 72.2635 342.237 69.9049 337.857 65.1878C333.476 60.3864 331.286 54.5742 331.286 47.667C331.286 40.7597 333.476 34.9475 337.857 30.2304C342.237 25.429 347.712 23.0705 354.282 23.0705C362.285 23.0705 368.855 27.2822 371.887 33.684H372.224V24.4182H382.501V71H372.224V61.9027H371.887C368.097 68.8099 362.2 72.2635 354.282 72.2635ZM370.708 47.667C370.708 43.371 369.36 39.9174 366.665 37.1376C364.054 34.3579 360.6 33.0101 356.472 33.0101C352.345 33.0101 348.891 34.3579 346.28 37.1376C343.669 39.9174 342.405 43.371 342.405 47.667C342.405 51.8787 343.669 55.4166 346.28 58.1963C348.891 60.9761 352.345 62.3238 356.472 62.3238C360.6 62.3238 364.054 60.9761 366.665 58.1963C369.36 55.4166 370.708 51.8787 370.708 47.667ZM399.28 15.1524C396.922 17.511 393.047 17.511 390.604 15.1524C388.245 12.7096 388.245 8.83479 390.604 6.47621C393.047 4.11764 396.922 4.11764 399.28 6.47621C401.639 8.83479 401.639 12.7096 399.28 15.1524ZM400.291 70.9158H389.677V24.4182H400.291V70.9158ZM417.792 71H407.347V24.4182H449.38V71H438.935V34.2737H417.792V71ZM478.255 72.2635C471.179 72.2635 465.198 69.8207 460.229 65.0193C455.343 60.218 452.9 54.3215 452.9 47.4985C452.9 40.6755 455.343 34.8633 460.229 30.2304C465.114 25.5133 471.095 23.1547 478.255 23.1547C485.415 23.1547 491.395 25.5133 496.281 30.3146C501.167 35.0318 503.609 40.844 503.609 47.8355C503.609 48.9305 503.525 50.1098 503.272 51.2048H464.188C464.777 54.4058 466.462 57.1013 469.073 59.2071C471.769 61.313 474.885 62.4081 478.423 62.4081C484.067 62.4081 488.7 59.7968 490.806 55.0796H502.43C500.745 60.218 497.713 64.3455 493.333 67.5464C489.037 70.6631 483.983 72.2635 478.255 72.2635ZM464.356 43.2025H491.901C491.48 40.3386 489.963 37.8958 487.352 35.9584C484.741 34.021 481.708 33.0101 478.086 33.0101C470.674 33.0101 465.114 37.2219 464.356 43.2025ZM218.015 158H207.57V98.2776H221.974L238.147 143.764H238.4L254.573 98.2776H269.061V158H258.7V115.798H258.363C257.605 118.747 256.931 120.852 256.426 122.2L243.201 158H233.514L220.289 122.2C219.447 119.926 218.773 117.736 218.352 115.798H218.015V158ZM275.668 134.751C275.668 127.928 278.111 122.116 282.913 117.399C287.714 112.597 293.61 110.239 300.433 110.239C307.256 110.239 313.153 112.597 317.954 117.399C322.756 122.116 325.198 127.928 325.198 134.751C325.198 141.406 322.756 147.218 317.87 152.019C313.069 156.821 307.256 159.264 300.433 159.264C293.61 159.264 287.798 156.821 282.913 152.019C278.111 147.218 275.668 141.406 275.668 134.751ZM300.433 149.324C304.477 149.324 307.846 147.976 310.626 145.281C313.406 142.501 314.753 139.047 314.753 134.751C314.753 130.371 313.406 126.833 310.626 124.222C307.93 121.526 304.561 120.179 300.433 120.179C296.39 120.179 293.021 121.526 290.325 124.222C287.63 126.833 286.282 130.371 286.282 134.751C286.282 139.047 287.63 142.501 290.325 145.281C293.105 147.976 296.474 149.324 300.433 149.324ZM340.842 158H330.397V111.418H372.43V158H361.985V121.274H340.842V158ZM390.86 102.152C388.501 104.511 384.627 104.511 382.184 102.152C379.825 99.7096 379.825 95.8348 382.184 93.4762C384.627 91.1176 388.501 91.1176 390.86 93.4762C393.219 95.8348 393.219 99.7096 390.86 102.152ZM391.871 157.916H381.257V111.418H391.871V157.916ZM420.828 158H403.138V121.274H395.979V111.418H403.138V98.2776H413.668V111.418H421.08V121.274H413.668V148.145H420.828V158ZM423.418 134.751C423.418 127.928 425.861 122.116 430.662 117.399C435.464 112.597 441.36 110.239 448.183 110.239C455.006 110.239 460.902 112.597 465.704 117.399C470.505 122.116 472.948 127.928 472.948 134.751C472.948 141.406 470.505 147.218 465.62 152.019C460.818 156.821 455.006 159.264 448.183 159.264C441.36 159.264 435.548 156.821 430.662 152.019C425.861 147.218 423.418 141.406 423.418 134.751ZM448.183 149.324C452.226 149.324 455.596 147.976 458.375 145.281C461.155 142.501 462.503 139.047 462.503 134.751C462.503 130.371 461.155 126.833 458.375 124.222C455.68 121.526 452.31 120.179 448.183 120.179C444.14 120.179 440.77 121.526 438.075 124.222C435.379 126.833 434.032 130.371 434.032 134.751C434.032 139.047 435.379 142.501 438.075 145.281C440.855 147.976 444.224 149.324 448.183 149.324ZM488.76 158H478.147V111.418H506.197V121.274H488.76V158Z" fill="white"/>
<path d="M44.483 89.366C44.483 112.295 63.0706 130.883 85.9995 130.883C108.928 130.883 127.516 112.295 127.516 89.366C127.516 66.4371 108.928 47.8491 85.9995 47.8491C63.0706 47.8491 44.483 66.4371 44.483 89.366Z" stroke="#C9CAD0" stroke-opacity="0.3" stroke-width="5" stroke-linecap="round" stroke-dasharray="7.38 18.45"/>
<path d="M2.5 89.366C2.5 135.481 39.8839 172.866 85.9994 172.866C132.115 172.866 169.499 135.481 169.499 89.366C169.499 43.2506 132.115 5.86578 85.9994 5.86578C39.8839 5.86578 2.5 43.2506 2.5 89.366Z" stroke="#C9CAD0" stroke-opacity="0.3" stroke-width="5" stroke-linecap="round" stroke-dasharray="7.38 18.45"/>
<g filter="url(#filter0_i_140_179)">
<path d="M5.57763 116.567C10.2965 131.492 19.137 144.78 31.0801 154.899C43.0232 165.017 57.5826 171.555 73.08 173.758L84.769 91.5285L5.57763 116.567Z" fill="#FFD500"/>
</g>
<g filter="url(#filter1_i_140_179)">
<path d="M166.691 57.5912C161.972 42.666 153.132 29.3782 141.188 19.2595C129.245 9.1408 114.686 2.60313 99.1885 0.400124L87.4996 82.6296L166.691 57.5912Z" fill="url(#paint0_radial_140_179)"/>
</g>
<path d="M71.5387 88.433C71.5387 80.4466 78.013 73.9721 85.9995 73.9721V73.9721C93.9859 73.9721 100.46 80.4466 100.46 88.433V88.433C100.46 96.4195 93.9859 102.894 85.9995 102.894V102.894C78.013 102.894 71.5387 96.4195 71.5387 88.433V88.433Z" fill="white"/>
<defs>
<filter id="filter0_i_140_179" x="5.57764" y="86.5285" width="84.1913" height="87.2294" filterUnits="userSpaceOnUse" color-interpolation-filters="sRGB">
<feFlood flood-opacity="0" result="BackgroundImageFix"/>
<feBlend mode="normal" in="SourceGraphic" in2="BackgroundImageFix" result="shape"/>
<feColorMatrix in="SourceAlpha" type="matrix" values="0 0 0 0 0 0 0 0 0 0 0 0 0 0 0 0 0 0 127 0" result="hardAlpha"/>
<feOffset dx="5" dy="-5"/>
<feGaussianBlur stdDeviation="11.25"/>
<feComposite in2="hardAlpha" operator="arithmetic" k2="-1" k3="1"/>
<feColorMatrix type="matrix" values="0 0 0 0 1 0 0 0 0 1 0 0 0 0 1 0 0 0 0.75 0"/>
<feBlend mode="normal" in2="shape" result="effect1_innerShadow_140_179"/>
</filter>
<filter id="filter1_i_140_179" x="87.4996" y="-16.5999" width="79.1913" height="99.2294" filterUnits="userSpaceOnUse" color-interpolation-filters="sRGB">
<feFlood flood-opacity="0" result="BackgroundImageFix"/>
<feBlend mode="normal" in="SourceGraphic" in2="BackgroundImageFix" result="shape"/>
<feColorMatrix in="SourceAlpha" type="matrix" values="0 0 0 0 0 0 0 0 0 0 0 0 0 0 0 0 0 0 127 0" result="hardAlpha"/>
<feOffset dy="-17"/>
<feGaussianBlur stdDeviation="12.8"/>
<feComposite in2="hardAlpha" operator="arithmetic" k2="-1" k3="1"/>
<feColorMatrix type="matrix" values="0 0 0 0 1 0 0 0 0 1 0 0 0 0 1 0 0 0 0.4 0"/>
<feBlend mode="normal" in2="shape" result="effect1_innerShadow_140_179"/>
</filter>
<radialGradient id="paint0_radial_140_179" cx="0" cy="0" r="1" gradientUnits="userSpaceOnUse" gradientTransform="translate(90.9951 80.5) rotate(-48.764) scale(53.8563 62.3719)">
<stop offset="0.0626193" stop-color="#FBDC42"/>
<stop offset="0.123569" stop-color="#FBDC42"/>
<stop offset="1" stop-color="#335BFD"/>
</radialGradient>
</defs>
</svg>
